<svg width="64" height="64" viewBox="0 0 64 64" fill="none" xmlns="http://www.w3.org/2000/svg">
    <rect width="64" height="64" rx="15" fill="#0D0D0D" />
    <path
        d="M32.0074 10.2684C36.5561 16.0431 38.9843 23.1642 38.8963 30.4714V32.2157L40.3971 33.1289C42.3362 34.3028 43.7823 36.1235 44.4721 38.2592C43.8665 37.8133 43.233 37.4055 42.5753 37.0382L38.5732 34.7911L37.8541 39.3263C37.7918 39.727 37.7083 40.1243 37.604 40.5165H26.3899C26.2232 40.0035 26.0877 39.4905 25.9626 38.9569L25.0559 34.8527L21.3665 36.9048C20.7501 37.2495 20.155 37.6298 19.5843 38.0437C20.2875 35.9327 21.7035 34.1222 23.5968 32.9134L25.0246 32.0003V30.3791C25.0504 23.1015 27.5078 16.0346 32.0178 10.2684H32.0074ZM32.0178 6C31.7839 6.00057 31.5581 6.08439 31.382 6.23599L31.2882 6.31808C25.2785 12.9354 21.9413 21.4922 21.9085 30.3688C19.3582 31.9978 17.4704 34.4572 16.5751 37.3174C15.6797 40.1775 15.8337 43.2565 17.0101 46.0162C18.2494 43.3216 20.3211 41.0809 22.9298 39.6136C23.1914 40.7293 23.5399 41.8236 23.972 42.8867C24.0268 43.0911 24.1483 43.2721 24.3178 43.4018C24.4872 43.5316 24.6953 43.603 24.91 43.6049H39.3757C39.6675 43.6049 39.9593 43.3279 40.1053 42.897C40.527 41.8862 40.821 40.8283 40.9807 39.747C43.5944 41.2082 45.6678 43.4507 46.9004 46.1496C48.1478 43.4034 48.3409 40.3051 47.4439 37.4294C46.547 34.5537 44.6208 32.096 42.0229 30.5125C42.126 21.5835 38.8065 12.9443 32.7265 6.31808C32.6359 6.21842 32.5251 6.1386 32.4013 6.08381C32.2774 6.02901 32.1432 6.00046 32.0074 6H32.0178Z"
        fill="#4EA8DE" />
    <path
        d="M32.0074 29.5172C31.2069 29.5172 30.4243 29.2838 29.7583 28.8466C29.0923 28.4094 28.5727 27.7878 28.2649 27.0603C27.9572 26.3328 27.8751 25.5318 28.029 24.7584C28.1829 23.985 28.566 23.2738 29.1298 22.7144C29.6937 22.155 30.4131 21.7724 31.1975 21.615C31.9818 21.4575 32.796 21.5322 33.5373 21.8295C34.2786 22.1269 34.914 22.6337 35.3632 23.286C35.8124 23.9383 36.0554 24.707 36.0616 25.4951V25.4951C36.074 26.0058 35.9842 26.5139 35.7971 26.9904C35.61 27.4669 35.3294 27.9025 34.9713 28.2722C34.6132 28.6419 34.1846 28.9385 33.71 29.1451C33.2355 29.3517 32.7242 29.4642 32.2054 29.4762C32.1398 29.4865 32.073 29.4865 32.0074 29.4762V29.5172Z"
        fill="#4EA8DE" />
    <path
        d="M37.6458 46.1598C37.385 46.1516 37.1252 46.1948 36.8816 46.2867C36.638 46.3787 36.4155 46.5177 36.2271 46.6954C36.0388 46.8732 35.8884 47.0862 35.7849 47.3219C35.6813 47.5577 35.6265 47.8114 35.6239 48.0683V54.122C35.6239 54.65 35.8369 55.1563 36.2161 55.5296C36.5953 55.9029 37.1095 56.1126 37.6458 56.1126C38.182 56.1126 38.6963 55.9029 39.0754 55.5296C39.4546 55.1563 39.6676 54.65 39.6676 54.122V48.1504C39.676 47.8945 39.6325 47.6395 39.5397 47.4004C39.4469 47.1612 39.3067 46.9426 39.1273 46.7574C38.9478 46.5721 38.7327 46.4238 38.4944 46.3212C38.2562 46.2187 37.9996 46.1638 37.7396 46.1598H37.6458Z"
        fill="#5E60CE" />
    <path
        d="M26.3899 46.1598C26.1247 46.146 25.8594 46.1849 25.6098 46.2741C25.3601 46.3633 25.1313 46.501 24.9368 46.679C24.7423 46.8571 24.5862 47.0718 24.4778 47.3105C24.3693 47.5492 24.3108 47.8069 24.3055 48.0683V54.122C24.3055 54.6499 24.5186 55.1563 24.8977 55.5296C25.2769 55.9029 25.7912 56.1126 26.3274 56.1126C26.8636 56.1126 27.3779 55.9029 27.7571 55.5296C28.1363 55.1563 28.3493 54.6499 28.3493 54.122V48.1504C28.3576 47.8945 28.3141 47.6395 28.2213 47.4004C28.1286 47.1612 27.9884 46.9426 27.8089 46.7573C27.6294 46.5721 27.4143 46.4238 27.1761 46.3212C26.9378 46.2186 26.6812 46.1638 26.4212 46.1598H26.3899Z"
        fill="#5E60CE" />
    <path
        d="M31.8615 46.1598C31.6014 46.1544 31.3428 46.1994 31.1004 46.2924C30.8581 46.3853 30.6367 46.5244 30.4489 46.7017C30.2612 46.8789 30.1107 47.0908 30.0062 47.3253C29.9016 47.5598 29.845 47.8122 29.8396 48.0683V56.4101C29.8396 56.938 30.0526 57.4443 30.4318 57.8176C30.811 58.1909 31.3252 58.4007 31.8615 58.4007C32.3977 58.4007 32.912 58.1909 33.2911 57.8176C33.6703 57.4443 33.8833 56.938 33.8833 56.4101V48.2017C33.8917 47.9458 33.8482 47.6908 33.7554 47.4517C33.6626 47.2125 33.5224 46.9939 33.343 46.8086C33.1635 46.6234 32.9484 46.4751 32.7101 46.3725C32.4719 46.2699 32.2153 46.2151 31.9553 46.2111L31.8615 46.1598Z"
        fill="#5E60CE" />
</svg>